<svg xmlns="http://www.w3.org/2000/svg" viewBox="0 0 1600 900" preserveAspectRatio="xMidYMid slice">
  <defs>
    <radialGradient id="ga" cx="24%" cy="20%" r="80%">
      <stop offset="0%" stop-color="#e06a2b" stop-opacity="0.85"/>
      <stop offset="55%" stop-color="#e06a2b" stop-opacity="0.22"/>
      <stop offset="100%" stop-color="#e06a2b" stop-opacity="0"/>
    </radialGradient>
    <radialGradient id="gb" cx="80%" cy="70%" r="85%">
      <stop offset="0%" stop-color="#a3203c" stop-opacity="0.65"/>
      <stop offset="55%" stop-color="#a3203c" stop-opacity="0.18"/>
      <stop offset="100%" stop-color="#a3203c" stop-opacity="0"/>
    </radialGradient>
    <radialGradient id="gc" cx="60%" cy="10%" r="45%">
      <stop offset="0%" stop-color="#ffffff" stop-opacity="0.12"/>
      <stop offset="100%" stop-color="#ffffff" stop-opacity="0"/>
    </radialGradient>
    <linearGradient id="scrim" x1="0" y1="0" x2="0" y2="1">
      <stop offset="60%" stop-color="#0b0d16" stop-opacity="0"/>
      <stop offset="100%" stop-color="#0b0d16" stop-opacity="0.55"/>
    </linearGradient>
    <filter id="grain">
      <feTurbulence type="fractalNoise" baseFrequency="0.9" numOctaves="2" seed="11" stitchTiles="stitch"/>
      <feColorMatrix type="matrix" values="0 0 0 0 1  0 0 0 0 1  0 0 0 0 1  0 0 0 0.05 0"/>
    </filter>
  </defs>
  <rect width="1600" height="900" fill="#0b0d16"/>
  <rect width="1600" height="900" fill="url(#ga)"/>
  <rect width="1600" height="900" fill="url(#gb)"/>
  <polygon points="614,900 1012,0 1355,0 958,900" fill="#e06a2b" opacity="0.17"/>
  <polygon points="714,900 890,0 1244,0 1069,900" fill="#a3203c" opacity="0.17"/>
  <polygon points="934,900 1082,0 1519,0 1371,900" fill="#e06a2b" opacity="0.14"/>
  <polygon points="-37,900 291,0 735,0 407,900" fill="#a3203c" opacity="0.11"/>
  <polygon points="1568,900 1884,0 2390,0 2074,900" fill="#e06a2b" opacity="0.19"/>
  <polygon points="83,900 362,0 488,0 209,900" fill="#a3203c" opacity="0.11"/>
  <rect width="1600" height="900" fill="url(#gc)"/>
  <circle cx="956" cy="234" r="62" fill="none" stroke="#e06a2b" stroke-opacity="0.5" stroke-width="2.5"/>
  <rect width="1600" height="900" filter="url(#grain)"/>
  <rect width="1600" height="900" fill="url(#scrim)"/>
</svg>